<?xml version="1.0" encoding="UTF-8"?>
<svg width="611px" height="470px" viewBox="0 0 611 470" version="1.1" xmlns="http://www.w3.org/2000/svg" xmlns:xlink="http://www.w3.org/1999/xlink">
    <!-- Generator: Sketch 60.1 (88133) - https://sketch.com -->
    <title>DrawKit-cooking-kitchen-food-vector-illustrations-13</title>
    <desc>Created with Sketch.</desc>
    <g id="页面-1" stroke="none" stroke-width="1" fill="none" fill-rule="evenodd" stroke-linecap="round" stroke-linejoin="round">
        <g id="DrawKit-cooking-kitchen-food-vector-illustrations-13" transform="translate(2.000000, 2.000000)" stroke-width="4">
            <g id="Chars">
                <path d="M293.78,149.21 C293.78,149.21 314.06,115.54 346.23,125.76" id="路径" stroke="#070707"></path>
                <path d="M305.71,134.71 C305.71,134.71 318.71,133.88 315.87,140.29 C314.09,144.34 297.87,141.7 297.87,141.7 C297.87,141.7 298.42,123.9 305.55,124.05 C311.24,124.16 305.71,134.71 305.71,134.71 Z" id="路径" stroke="#070707"></path>
                <path d="M315.49,127.84 C315.49,127.84 327.36,129.15 323.06,132.95 C320.88,134.88 307.47,133.3 307.47,133.3 C307.47,133.3 313.47,117.46 319.28,116.97 C325.09,116.48 315.49,127.84 315.49,127.84 Z" id="路径" stroke="#070707"></path>
                <path d="M330.89,123.67 C330.89,123.67 340.15,126.83 336.94,129.89 C335.38,131.37 322.83,125.45 322.83,125.45 C322.83,125.45 328.5,115.23 334.01,116.88 C337.65,118 330.89,123.67 330.89,123.67 Z" id="路径" stroke="#070707"></path>
                <path d="M335,123.56 C335,123.56 355.38,118.03 354.3,126.56 C353.53,132.93 335,123.56 335,123.56 Z" id="路径" stroke="#070707"></path>
                <path d="M290,165.73 C290,165.73 293.5,127.12 260.9,118.24" id="路径" stroke="#070707"></path>
                <path d="M284.93,136.47 C284.93,136.47 274.38,131.18 275.63,136.61 C276.27,139.38 288.25,145.28 288.25,145.28 C288.25,145.28 292.78,128.99 288.33,125.49 C283.88,121.99 284.93,136.47 284.93,136.47 Z" id="路径" stroke="#070707"></path>
                <path d="M274.75,124.76 C274.75,124.76 265.24,122.39 266.05,126.63 C266.44,128.69 280.32,130.56 280.32,130.56 C280.32,130.56 281.79,119.1 276.26,117.5 C272.61,116.44 274.75,124.76 274.75,124.76 Z" id="路径" stroke="#070707"></path>
                <path d="M271.4,122.45 C271.4,122.45 257.95,106.94 253.74,114.51 C250.56,120.22 271.4,122.45 271.4,122.45 Z" id="路径" stroke="#070707"></path>
                <path d="M288.11,147.25 C288.11,147.25 307.87,110.6 282.34,89.47" id="路径" stroke="#070707"></path>
                <path d="M295,114.77 C295,114.77 288.78,106.6 287.47,112.01 C286.81,114.77 294.99,124.92 294.99,124.92 C294.99,124.92 306.17,113.92 302.31,106.58 C299.69,101.68 295,114.77 295,114.77 Z" id="路径" stroke="#070707"></path>
                <path d="M292,101 C292,101 284.46,95 283.27,99.19 C282.7,101.19 294.43,108.47 294.43,108.47 C294.43,108.47 300.93,98.71 296.64,95.04 C293.78,92.56 292,101 292,101 Z" id="路径" stroke="#070707"></path>
                <path d="M290,97.51 C290,97.51 284.81,78.08 277.59,83.23 C272.11,87.11 290,97.51 290,97.51 Z" id="路径" stroke="#070707"></path>
                <path d="M222.27,356.3 L222.27,356.3 C218.308269,355.271552 215.863762,351.300332 216.73,347.3 L260.59,161.1 C263.3,150.05 275.36,143.49 286.86,146.82 L292.67,148.51 C304.17,151.84 310.29,163.67 305.99,174.27 L232.16,351.8 C230.466043,355.575636 226.22941,357.503325 222.27,356.3 L222.27,356.3 Z" id="路径" stroke="#070707" fill="#E57B07" fill-rule="nonzero"></path>
                <path d="M362.18,179.27 C362.18,179.27 382.46,145.61 414.62,155.82" id="路径" stroke="#070707"></path>
                <path d="M374.1,164.77 C374.1,164.77 387.1,163.94 384.26,170.36 C382.48,174.36 366.26,171.77 366.26,171.77 C366.26,171.77 366.8,153.97 373.93,154.11 C379.63,154.23 374.1,164.77 374.1,164.77 Z" id="路径" stroke="#070707"></path>
                <path d="M383.89,157.9 C383.89,157.9 395.75,159.22 391.45,163.01 C389.27,164.94 375.87,163.36 375.87,163.36 C375.87,163.36 381.87,147.52 387.67,147.03 C393.47,146.54 383.89,157.9 383.89,157.9 Z" id="路径" stroke="#070707"></path>
                <path d="M399.29,153.73 C399.29,153.73 408.54,156.89 405.29,159.95 C403.74,161.44 391.19,155.51 391.19,155.51 C391.19,155.51 396.85,145.29 402.36,146.94 C406.05,148 399.29,153.73 399.29,153.73 Z" id="路径" stroke="#070707"></path>
                <path d="M403.44,153.63 C403.44,153.63 423.81,148.09 422.74,156.63 C421.93,163 403.44,153.63 403.44,153.63 Z" id="路径" stroke="#070707"></path>
                <path d="M358.37,195.8 C358.37,195.8 361.88,157.18 329.27,148.31" id="路径" stroke="#070707"></path>
                <path d="M353.32,166.54 C353.32,166.54 342.77,161.24 344.03,166.68 C344.67,169.44 356.65,175.34 356.65,175.34 C356.65,175.34 361.17,159.05 356.73,155.56 C352.29,152.07 353.32,166.54 353.32,166.54 Z" id="路径" stroke="#070707"></path>
                <path d="M343.15,154.83 C343.15,154.83 333.64,152.46 334.44,156.7 C334.83,158.76 348.71,160.62 348.71,160.62 C348.71,160.62 350.18,149.17 344.65,147.56 C341,146.5 343.15,154.83 343.15,154.83 Z" id="路径" stroke="#070707"></path>
                <path d="M339.8,152.51 C339.8,152.51 326.34,137 322.13,144.57 C319,150.28 339.8,152.51 339.8,152.51 Z" id="路径" stroke="#070707"></path>
                <path d="M356.5,177.31 C356.5,177.31 376.26,140.67 350.74,119.54" id="路径" stroke="#070707"></path>
                <path d="M363.35,144.83 C363.35,144.83 357.13,136.66 355.82,142.08 C355.15,144.83 363.34,154.99 363.34,154.99 C363.34,154.99 374.51,143.99 370.65,136.64 C368.09,131.74 363.35,144.83 363.35,144.83 Z" id="路径" stroke="#070707"></path>
                <path d="M360.36,131 C360.36,131 352.82,125 351.64,129.19 C351.06,131.19 362.79,138.48 362.79,138.48 C362.79,138.48 369.29,128.71 365,125.04 C362.17,122.62 360.36,131 360.36,131 Z" id="路径" stroke="#070707"></path>
                <path d="M358.37,127.57 C358.37,127.57 353.18,108.14 345.96,113.29 C340.51,117.18 358.37,127.57 358.37,127.57 Z" id="路径" stroke="#070707"></path>
                <path d="M290.66,386.36 L290.66,386.36 C286.695689,385.336136 284.252058,381.35916 285.13,377.36 L329,191.19 C331.71,180.14 343.77,173.58 355.27,176.92 L361.09,178.61 C372.59,181.94 378.7,193.77 374.4,204.36 L300.57,381.86 C298.878352,385.648655 294.625856,387.579657 290.66,386.36 Z" id="路径" stroke="#070707" fill="#E57B07" fill-rule="nonzero"></path>
                <rect id="矩形" stroke="#070707" fill="#F7F3EF" fill-rule="nonzero" transform="translate(187.291554, 282.242316) rotate(-28.140000) translate(-187.291554, -282.242316) " x="184.631554" y="132.267316" width="5.32" height="299.95"></rect>
                <rect id="矩形" stroke="#070707" fill="#F7F3EF" fill-rule="nonzero" transform="translate(195.383151, 277.918664) rotate(-28.140000) translate(-195.383151, -277.918664) " x="192.723151" y="127.943664" width="5.32" height="299.95"></rect>
                <rect id="矩形" stroke="#070707" fill="#F7F3EF" fill-rule="nonzero" transform="translate(211.565163, 269.256644) rotate(-28.140000) translate(-211.565163, -269.256644) " x="208.905163" y="119.281644" width="5.32" height="299.95"></rect>
                <rect id="矩形" stroke="#070707" fill="#F7F3EF" fill-rule="nonzero" transform="translate(227.748357, 260.599340) rotate(-28.140000) translate(-227.748357, -260.599340) " x="225.088357" y="110.62434" width="5.32" height="299.95"></rect>
                <rect id="矩形" stroke="#070707" fill="#F7F3EF" fill-rule="nonzero" transform="translate(203.474748, 273.585012) rotate(-28.140000) translate(-203.474748, -273.585012) " x="200.814748" y="123.610012" width="5.32" height="299.95"></rect>
                <rect id="矩形" stroke="#070707" fill="#F7F3EF" fill-rule="nonzero" transform="translate(219.656760, 264.922992) rotate(-28.140000) translate(-219.656760, -264.922992) " x="216.99676" y="114.947992" width="5.32" height="299.95"></rect>
                <rect id="矩形" stroke="#070707" fill="#F7F3EF" fill-rule="nonzero" transform="translate(235.853488, 256.279790) rotate(-28.140000) translate(-235.853488, -256.279790) " x="233.193488" y="106.30479" width="5.32" height="299.95"></rect>
                <rect id="矩形" stroke="#070707" fill="#F7F3EF" fill-rule="nonzero" transform="translate(247.991103, 275.742834) rotate(-28.140000) translate(-247.991103, -275.742834) " x="245.331103" y="125.767834" width="5.32" height="299.95"></rect>
                <rect id="矩形" stroke="#070707" fill="#F7F3EF" fill-rule="nonzero" transform="translate(256.072700, 271.419183) rotate(-28.140000) translate(-256.072700, -271.419183) " x="253.4127" y="121.444183" width="5.32" height="299.95"></rect>
                <rect id="矩形" stroke="#070707" fill="#F7F3EF" fill-rule="nonzero" transform="translate(264.169013, 267.094349) rotate(-28.140000) translate(-264.169013, -267.094349) " x="261.509013" y="117.119349" width="5.32" height="299.95"></rect>
                <rect id="矩形" stroke="#070707" fill="#F7F3EF" fill-rule="nonzero" transform="translate(272.269428, 262.765980) rotate(-28.140000) translate(-272.269428, -262.765980) " x="269.609428" y="112.79098" width="5.32" height="299.95"></rect>
                <g id="POT" transform="translate(42.000000, 0.000000)" fill="#F7F3EF" fill-rule="nonzero" stroke="#070707">
                    <path d="M78.1,193.36 L387.3,193.36 L387.3,422 C387.3,445.91393 367.91393,465.3 344,465.3 L121.4,465.3 C97.4860703,465.3 78.1,445.91393 78.1,422 L78.1,193.36 Z" id="路径"></path>
                    <path d="M387.3,216 L423.37,216 L462.17,191.88 C464.266712,190.258727 465.051271,187.453825 464.1,184.98 L464.1,184.98 C462.45,180.81 456.77,179.47 453.1,182.38 L418.3,203.29 L387.3,203.29 L387.3,216 Z" id="路径"></path>
                    <path d="M78.08,216 L42,216 L3.2,191.85 C1.1032883,190.228727 0.318728703,187.423825 1.27,184.95 L1.27,184.95 C2.92,180.78 8.61,179.44 12.27,182.35 L47,203.26 L78,203.26 L78.08,216 Z" id="路径"></path>
                    <path d="M387.3,125.8 L99.63,12.44 C121.34,-1.77 186.27,6.72 257.07,34.61 C327.87,62.5 381.12,100.6 387.3,125.8 Z" id="路径"></path>
                    <path d="M290.82,18.21 L246.72,0.83 C242.45,-0.85 237.96,1.95 238.09,6.23 L238.74,27.49 L278.47,43.15 L293.47,28.04 C296.46,25 295.09,19.89 290.82,18.21 Z" id="路径"></path>
                </g>
                <g id="SAUCES" transform="translate(0.000000, 196.000000)">
                    <path d="M573.860007,17.46 L568.27,17.46 C568.73088,18.3933001 568.973659,19.4191258 568.98,20.46 L568.98,25.57 C568.980006,28.1397467 566.899741,30.2244855 564.33,30.23 L536.06,30.23 C533.486353,30.23 531.4,28.1436469 531.4,25.57 L531.4,20.5 C531.406341,19.4591258 531.64912,18.4333001 532.11,17.5 L526.279993,17.5 L526.279993,7.73 C526.277345,5.91153504 526.997868,4.16664061 528.28278,2.87985279 C529.567692,1.59306497 531.311533,0.869992679 533.13,0.869992679 L567,0.869992679 C568.820199,0.86734083 570.566612,1.5892348 571.853689,2.87631124 C573.140765,4.16338768 573.862659,5.90980098 573.860007,7.73 L573.860007,17.46 Z" id="路径" stroke="#070707" fill="#F7F3EF" fill-rule="nonzero"></path>
                    <path d="M596.18,149.11 L590.33,235.18 C589.920643,242.681791 583.772225,248.585496 576.26,248.69 L523.88,248.69 C516.36577,248.590384 510.214554,242.683993 509.81,235.18 L504,149.11 L596.18,149.11 Z" id="路径" stroke="#070707" fill="#F7F3EF" fill-rule="nonzero"></path>
                    <path d="M606.83,124.4 L598.51,243.26 C597.851315,252.12281 590.477236,258.982621 581.59,259 L518.59,259 C509.688463,258.981061 502.308797,252.098607 501.67,243.22 L493.31,124.4 C492.626182,114.780677 496.998119,105.498834 504.85,99.9 C513.389873,93.9688737 518.490833,84.2374674 518.51,73.84 L518.15,29.17 C518.013513,26.1130113 519.132649,23.133099 521.247728,20.9217082 C523.362807,18.7103175 526.289966,17.45998 529.35,17.45998 L570.78,17.45998 C573.843505,17.4542181 576.77591,18.7024563 578.895364,20.9144716 C581.014819,23.1264869 582.136647,26.1095382 582,29.17 L581.63,73.84 C581.659957,84.2372057 586.762907,93.965287 595.3,99.9 C603.145002,105.503724 607.512094,114.78332 606.83,124.4 L606.83,124.4 Z" id="路径" stroke="#070707" fill="#E57B07" fill-rule="nonzero"></path>
                    <path d="M579.18,196.53 C578.29,201.53 565.55,207.72 549.98,207.72 C534.41,207.72 521.67,201.48 520.77,196.53 L520.89,133.96 C522.49,129.22 534.89,123.25 549.98,123.25 C565.07,123.25 577.47,129.25 579.07,133.96 L579.18,196.53 Z" id="路径" stroke="#070707" fill="#F7F3EF" fill-rule="nonzero"></path>
                    <path d="M31.09,100.72 L31.09,102.86 C31.09,105.308244 33.0717619,107.294486 35.52,107.3 L35.52,107.3 L35.52,114 C35.5255144,116.542127 37.5878674,118.600011 40.13,118.600011 L49,118.600011 C50.2217276,118.602656 51.3943262,118.119187 52.2591576,117.256232 C53.1239889,116.393276 53.6100029,115.22173 53.61,114 L53.61,107.3 L53.61,107.3 C54.7866437,107.300003 55.9149497,106.8319 56.7460239,105.99895 C57.5770981,105.165999 58.0426561,104.036641 58.0400113,102.86 L58.0400113,100.72 C58.0400113,98.2733786 56.0566214,96.29 53.61,96.29 L35.52,96.29 C33.07566,96.2954991 31.0954991,98.27566 31.09,100.72 Z" id="路径" stroke="#070707" fill="#F7F3EF" fill-rule="nonzero"></path>
                    <path d="M0.58,215.08 C0.58,226.45 7.46,243.76 13.75,253.94 C15.1943393,256.288089 17.7532561,257.72 20.51,257.72 L65.17,257.72 C67.9630327,257.708988 70.5481074,256.242091 71.99,253.85 C78.26,243.37 85.14,224.85 85.14,213.48 C85.14,190.68 74.78,173.74 57.07,166.88 L57.07,122 L66.69,107.28 L28.69,107.28 L28.69,166.86 C10.94,173.74 0.58,192.29 0.58,215.08 Z" id="路径" stroke="#070707" fill="#F7F3EF" fill-rule="nonzero"></path>
                    <path d="M28.66,118.64 L16,118.64 C11.9366674,118.64437 8.13028117,120.628205 5.79931008,123.956458 C3.46833899,127.28471 2.90514011,131.539941 4.29,135.36 L17.94,173" id="路径" stroke="#070707"></path>
                    <path d="M7.27,215.42 C7.27,224.99 13.07,239.56 18.36,248.13 C19.5756857,250.106245 21.729777,251.31 24.05,251.31 L61.64,251.31 C63.992518,251.304689 66.170437,250.067753 67.38,248.05 C72.66,239.23 78.45,223.63 78.45,214.05 C78.5129166,208.273387 77.6070302,202.527092 75.77,197.05 L10.3,197.05 C8.23562373,202.952124 7.21043432,209.167547 7.27,215.42 Z" id="路径" stroke="#070707" fill="#F7F3EF" fill-rule="nonzero"></path>
                    <path d="M504.460007,145.07 L504.460007,253.3 C504.460007,254.686164 503.908667,256.01541 502.927564,256.994637 C501.94646,257.973865 500.616162,258.522655 499.23,258.52001 L458,258.52001 C456.614756,258.522661 455.285481,257.973553 454.305964,256.994036 C453.326447,256.014519 452.777339,254.685244 452.779983,253.3 L452.779983,145.07 C452.769042,137.570514 458.086216,131.120242 465.45,129.7 L465.45,103.88 L491.79,103.88 L491.79,129.7 C499.151633,131.123863 504.466993,137.571935 504.460007,145.07 L504.460007,145.07 Z" id="路径" stroke="#070707" fill="#F7F3EF" fill-rule="nonzero"></path>
                    <path d="M496.87,160.63 L496.87,246.28 C496.87,249.42 494.64,251.96 491.87,251.96 L465.34,251.96 C462.59,251.96 460.34,249.42 460.34,246.28 L460.34,160.63 L496.87,160.63 Z" id="路径" stroke="#000000" fill="#EFAF00" fill-rule="nonzero"></path>
                    <rect id="矩形" stroke="#070707" fill="#F7F3EF" fill-rule="nonzero" x="459.56" y="99.84" width="38.12" height="8.38" rx="2.4"></rect>
                </g>
            </g>
        </g>
    </g>
</svg>