<?xml version="1.0" encoding="UTF-8"?>
<svg width="321px" height="493px" viewBox="0 0 321 493" version="1.1" xmlns="http://www.w3.org/2000/svg" xmlns:xlink="http://www.w3.org/1999/xlink">
    <!-- Generator: Sketch 60.1 (88133) - https://sketch.com -->
    <title>DrawKit-cooking-kitchen-food-vector-illustrations-11</title>
    <desc>Created with Sketch.</desc>
    <g id="页面-1" stroke="none" stroke-width="1" fill="none" fill-rule="evenodd">
        <g id="DrawKit-cooking-kitchen-food-vector-illustrations-11" transform="translate(2.000000, 2.000000)">
            <g id="Chars">
                <g id="WINE" fill-rule="nonzero" stroke="#070707" stroke-linecap="round" stroke-linejoin="round" stroke-width="4">
                    <path d="M61,107.669933 L61,107.669933 C94.6396641,107.669933 121.91,134.940336 121.91,168.58 L121.91,463.66 C121.91,477.345616 110.815616,488.440051 97.13,488.440051 L24.83,488.440051 C18.2492765,488.453278 11.9335339,485.848399 7.27556271,481.199807 C2.61759155,476.551216 2.84217094e-14,470.240737 2.84217094e-14,463.66 L2.84217094e-14,168.58 C2.84217094e-14,152.410058 6.42962043,136.903706 17.871934,125.478275 C29.3142476,114.052843 44.8300757,107.646107 61,107.669933 Z" id="路径" fill="#F7F3EF"></path>
                    <path d="M121.87,175.3 L121.87,460.93 C121.87,476.12 110.77,488.44 97.09,488.44 L24.83,488.44 C11.14,488.44 0.05,476.12 0.05,460.93 L0.05,175.3 C0.05,144.98 18.05,119.3 42.78,110.74 L42.78,12.84 C42.78,7.34 46.78,2.84 51.78,2.84 L70.18,2.84 C75.18,2.84 79.18,7.31 79.18,12.84 L79.18,110.74 C88.7359584,114.136016 97.2751999,119.898799 104,127.49 C115.653017,140.675076 122.01796,157.704059 121.87,175.3 Z" id="路径" fill="#F7F3EF"></path>
                    <path d="M9.15,454.07 L9.15,175.68 L112.77,175.68 L112.77,454.07 C112.77,466.63 103.98,476.82 93.14,476.82 L28.77,476.82 C17.94,476.82 9.15,466.63 9.15,454.07 Z" id="路径" fill="#F7F3EF"></path>
                    <path d="M121.87,175.3 L121.87,460.93 C121.952296,468.702357 118.890553,476.178202 113.38,481.66 C106.86,487.98 96.64,485.16 93.21,476.35 L91.13,471 C85.93,457.64 74.07,449 60.96,449 L60.96,449 C47.85,449 35.96,457.65 30.79,471 L28.72,476.34 C25.29,485.15 15.07,487.97 8.55,481.66 C3.03424627,476.176792 -0.0312214373,468.697051 0.05,460.92 L0.05,175.3 C0.05,144.98 18.05,119.3 42.78,110.74 L42.78,12.84 C42.78,7.34 46.78,2.84 51.78,2.84 L70.18,2.84 C75.18,2.84 79.18,7.31 79.18,12.84 L79.18,110.74 C88.7359584,114.136016 97.2751999,119.898799 104,127.49 C115.653017,140.675076 122.01796,157.704059 121.87,175.3 L121.87,175.3 Z" id="路径" fill="#E57B07"></path>
                    <rect id="矩形" fill="#F7F3EF" x="25.75" y="222.2" width="70.43" height="146.37"></rect>
                    <path d="M51.31,0.719995204 L70.62,0.719995204 C76.3858528,0.719995204 81.06,5.39414721 81.06,11.16 L81.06,44.56 L40.86,44.56 L40.86,11.16 C40.86,8.38940636 41.9612967,5.73243492 43.9213399,3.77426742 C45.881383,1.81609992 48.5394076,0.717346175 51.31,0.719995204 L51.31,0.719995204 Z" id="路径" fill="#F7F3EF"></path>
                </g>
                <g id="GLASS_OF_WINE" transform="translate(158.000000, 195.000000)" fill-rule="nonzero" stroke="#070707" stroke-linecap="round" stroke-linejoin="round" stroke-width="4">
                    <path d="M73.77,148.49 L73.77,148.49 C62.99,148.49 54.25,158.19 54.25,170.16 L54.25,256.16 C54.25,266.69 60.32,276.03 69.32,279.36 L89.32,286.74 C90.91,287.32 90.53,289.94 88.85,289.94 L12.92,289.94 C11.24,289.94 10.86,287.32 12.46,286.74 L32.46,279.36 C41.46,276.03 47.53,266.69 47.53,256.16 L47.53,170.16 C47.53,158.16 38.79,148.49 28.02,148.49 L73.8,148.49 L73.77,148.49 Z" id="路径" fill="#F7F3EF"></path>
                    <path d="M75.19,148.49 L26.56,148.49 C11.42,148.49 -0.44,134.03 0.96,117.29 L10.75,0.93 L91,0.93 L100.79,117.29 C102.19,134 90.33,148.49 75.19,148.49 Z" id="路径" fill="#F7F3EF"></path>
                    <path d="M70.68,138.94 L31.07,138.94 C18.74,138.94 9.07,127.17 10.22,113.53 L12.88,82 L88.88,82 L91.53,113.51 C92.67,127.17 83,138.94 70.68,138.94 Z" id="路径" fill="#E57B07"></path>
                </g>
                <circle id="椭圆形" fill="#EFAF00" fill-rule="nonzero" cx="272.83" cy="134.81" r="43.47"></circle>
                <circle id="椭圆形" stroke="#000000" stroke-width="4" stroke-linecap="round" stroke-linejoin="round" cx="272.83" cy="134.81" r="43.47"></circle>
            </g>
        </g>
    </g>
</svg>